<svg version="1.1" id="Layer_1" xmlns="http://www.w3.org/2000/svg" xmlns:xlink="http://www.w3.org/1999/xlink" x="0px" y="0px"
	 width="100%" viewBox="0 0 128 128" enable-background="new 0 0 128 128" xml:space="preserve">
<path fill="#4C6971" opacity="1.000000" stroke="none" 
	d="
M83.000000,129.000000 
	C55.333332,129.000000 28.166666,129.000000 1.000000,129.000000 
	C1.000000,86.333336 1.000000,43.666668 1.000000,1.000000 
	C43.666668,1.000000 86.333336,1.000000 129.000000,1.000000 
	C129.000000,43.666668 129.000000,86.333336 129.000000,129.000000 
	C113.833336,129.000000 98.666664,129.000000 83.000000,129.000000 
M72.507942,92.994736 
	C77.955421,88.951859 83.402908,84.908974 88.826218,80.884033 
	C82.464355,76.221611 78.122681,81.071762 73.877823,84.174377 
	C69.334114,87.495430 65.464668,91.738976 62.326332,94.633987 
	C55.065544,89.139885 48.192005,83.624962 40.988846,78.580734 
	C34.402416,73.968384 26.874096,70.469482 22.718592,63.120949 
	C17.367208,53.657631 17.302780,41.811478 26.438627,35.827801 
	C39.874153,27.027971 53.728466,32.078400 58.333168,47.456772 
	C58.844810,49.165501 60.711796,50.468407 61.950218,51.959518 
	C62.969700,50.359241 64.565468,48.872967 64.908516,47.138874 
	C66.363060,39.786205 72.457214,33.218082 79.396362,32.052372 
	C89.002022,30.438717 97.913811,34.170753 102.183716,41.467319 
	C103.172012,43.156162 104.376091,44.782871 105.766899,46.146435 
	C106.523285,46.888000 107.881012,47.016201 108.967506,47.421051 
	C109.043671,46.416367 109.323380,45.378403 109.165375,44.411999 
	C106.907196,30.599516 92.051231,23.739504 78.257256,26.377508 
	C71.198326,27.727482 65.559029,31.501801 61.764179,38.045578 
	C56.096359,29.089241 48.209225,25.610542 38.221176,25.962946 
	C20.208250,26.598490 10.579812,40.258064 14.730589,58.388138 
	C17.039520,68.473267 23.596603,74.908333 32.013813,80.015602 
	C42.448650,86.347092 52.890915,92.636261 59.387127,103.624420 
	C60.689121,105.826714 62.705757,105.780945 64.443268,103.226509 
	C66.748505,99.837410 69.463730,96.727180 72.507942,92.994736 
M92.477631,71.999634 
	C96.704903,71.999634 100.932167,71.999634 105.159439,71.999634 
	C105.368416,72.438416 105.577400,72.877205 105.786377,73.315987 
	C102.789238,76.116325 99.546455,78.708984 96.916473,81.819740 
	C95.872032,83.055107 95.296577,86.045639 96.066193,87.174469 
	C97.690140,89.556404 100.025642,88.484619 101.853889,86.647583 
	C106.309845,82.170235 110.767815,77.694725 115.251740,73.245453 
	C117.924385,70.593468 117.706772,68.134911 115.070320,65.560242 
	C110.432686,61.031273 106.029434,56.249096 101.205544,51.933426 
	C100.014801,50.868126 97.583870,51.189075 95.723045,50.872772 
	C96.139488,52.733219 95.989891,55.078419 97.085243,56.357437 
	C99.706543,59.418270 102.913757,61.977318 105.884445,64.738930 
	C105.600670,65.159264 105.316887,65.579597 105.033104,65.999931 
	C94.946838,65.999931 84.858566,65.891525 74.775780,66.078758 
	C72.358772,66.123634 68.308830,64.305588 68.166908,68.880699 
	C68.022400,73.539597 72.093590,71.838547 74.530891,71.931274 
	C80.175179,72.146019 85.833191,71.999611 92.477631,71.999634 
z"/>
<path fill="#F64D08" opacity="1.000000" stroke="none" 
	d="
M72.255371,93.245926 
	C69.463730,96.727180 66.748505,99.837410 64.443268,103.226509 
	C62.705757,105.780945 60.689121,105.826714 59.387127,103.624420 
	C52.890915,92.636261 42.448650,86.347092 32.013813,80.015602 
	C23.596603,74.908333 17.039520,68.473267 14.730589,58.388138 
	C10.579812,40.258064 20.208250,26.598490 38.221176,25.962946 
	C48.209225,25.610542 56.096359,29.089241 61.764179,38.045578 
	C65.559029,31.501801 71.198326,27.727482 78.257256,26.377508 
	C92.051231,23.739504 106.907196,30.599516 109.165375,44.411999 
	C109.323380,45.378403 109.043671,46.416367 108.967514,47.421051 
	C107.881012,47.016201 106.523285,46.888000 105.766899,46.146435 
	C104.376091,44.782871 103.172012,43.156162 102.183716,41.467319 
	C97.913811,34.170753 89.002022,30.438717 79.396362,32.052372 
	C72.457214,33.218082 66.363060,39.786205 64.908516,47.138874 
	C64.565468,48.872967 62.969700,50.359241 61.950218,51.959518 
	C60.711796,50.468407 58.844810,49.165501 58.333168,47.456772 
	C53.728466,32.078400 39.874153,27.027971 26.438627,35.827801 
	C17.302780,41.811478 17.367208,53.657631 22.718592,63.120949 
	C26.874096,70.469482 34.402416,73.968384 40.988846,78.580734 
	C48.192005,83.624962 55.065544,89.139885 62.326332,94.633987 
	C65.464668,91.738976 69.334114,87.495430 73.877823,84.174377 
	C78.122681,81.071762 82.464355,76.221611 88.826218,80.884033 
	C83.402908,84.908974 77.955421,88.951859 72.255371,93.245926 
z"/>
<path fill="#F64D08" opacity="1.000000" stroke="none" 
	d="
M91.981636,71.999634 
	C85.833191,71.999611 80.175179,72.146019 74.530891,71.931274 
	C72.093590,71.838547 68.022400,73.539597 68.166908,68.880699 
	C68.308830,64.305588 72.358772,66.123634 74.775780,66.078758 
	C84.858566,65.891525 94.946838,65.999931 105.033104,65.999931 
	C105.316887,65.579597 105.600670,65.159264 105.884445,64.738930 
	C102.913757,61.977318 99.706543,59.418270 97.085243,56.357437 
	C95.989891,55.078419 96.139488,52.733219 95.723045,50.872772 
	C97.583870,51.189075 100.014801,50.868126 101.205544,51.933426 
	C106.029434,56.249096 110.432686,61.031273 115.070320,65.560242 
	C117.706772,68.134911 117.924385,70.593468 115.251740,73.245453 
	C110.767815,77.694725 106.309845,82.170235 101.853889,86.647583 
	C100.025642,88.484619 97.690140,89.556404 96.066193,87.174469 
	C95.296577,86.045639 95.872032,83.055107 96.916473,81.819740 
	C99.546455,78.708984 102.789238,76.116325 105.786377,73.315987 
	C105.577400,72.877205 105.368416,72.438416 105.159439,71.999634 
	C100.932167,71.999634 96.704903,71.999634 91.981636,71.999634 
z"/>
</svg>